<svg width="28" height="29" viewBox="0 0 28 29" fill="none" xmlns="http://www.w3.org/2000/svg">
<g clip-path="url(#clip0_213_56)">
<path d="M23.7037 5.58736C21.8881 4.75413 19.9723 4.15944 18.004 3.81811C17.9862 3.81511 17.9678 3.8177 17.9515 3.82553C17.9353 3.83337 17.9218 3.84606 17.913 3.86186C17.6662 4.29936 17.3932 4.87161 17.2025 5.31961C15.0808 4.99762 12.9227 4.99762 10.801 5.31961C10.5882 4.82054 10.3475 4.33386 10.08 3.86186C10.071 3.84623 10.0575 3.83369 10.0413 3.82588C10.025 3.81807 10.0068 3.81536 9.989 3.81811C8.02025 4.15761 6.104 4.75261 4.28925 5.58736C4.27372 5.59329 4.26073 5.60442 4.2525 5.61886C0.622998 11.0421 -0.372752 16.3324 0.115498 21.5561C0.117248 21.5806 0.132998 21.6051 0.152248 21.6209C2.26577 23.1864 4.62978 24.3818 7.1435 25.1559C7.16125 25.1615 7.18032 25.1613 7.19794 25.1553C7.21556 25.1493 7.23082 25.1379 7.2415 25.1226C7.7805 24.3876 8.26 23.6124 8.673 22.7969C8.68161 22.7801 8.68455 22.7609 8.6814 22.7423C8.67825 22.7237 8.66916 22.7066 8.6555 22.6936C8.64645 22.6851 8.63573 22.6785 8.624 22.6744C7.87003 22.3846 7.13981 22.0365 6.44 21.6331C6.42045 21.622 6.40591 21.6039 6.3994 21.5824C6.39288 21.5609 6.39489 21.5377 6.405 21.5176C6.41095 21.5046 6.41996 21.4932 6.43125 21.4844C6.57825 21.3741 6.72525 21.2586 6.86525 21.1431C6.87762 21.1332 6.89245 21.1268 6.90818 21.1246C6.9239 21.1225 6.93991 21.1246 6.9545 21.1309C11.5377 23.2239 16.499 23.2239 21.0262 21.1309C21.0414 21.1243 21.058 21.122 21.0743 21.1242C21.0907 21.1263 21.1061 21.1329 21.119 21.1431C21.259 21.2586 21.406 21.3741 21.553 21.4844C21.5649 21.4931 21.5745 21.5046 21.5808 21.5179C21.5872 21.5312 21.5902 21.5459 21.5895 21.5606C21.5888 21.5754 21.5845 21.5897 21.5769 21.6023C21.5693 21.615 21.5587 21.6256 21.546 21.6331C20.8478 22.0401 20.1166 22.3879 19.3602 22.6726C19.3482 22.677 19.3372 22.6839 19.3282 22.693C19.3191 22.7021 19.3121 22.713 19.3077 22.7251C19.3037 22.7368 19.3021 22.7492 19.303 22.7615C19.3039 22.7739 19.3073 22.7859 19.313 22.7969C19.733 23.6106 20.2142 24.3876 20.7427 25.1226C20.7534 25.1379 20.7687 25.1493 20.7863 25.1553C20.8039 25.1613 20.823 25.1615 20.8407 25.1559C23.3587 24.3842 25.7265 23.1887 27.8425 21.6209C27.8531 21.6135 27.8619 21.6039 27.8683 21.5927C27.8746 21.5815 27.8784 21.569 27.8792 21.5561C28.4637 15.5169 26.901 10.2704 23.7387 5.62061C23.7356 5.61293 23.7308 5.606 23.7248 5.60028C23.7187 5.59455 23.7116 5.59015 23.7037 5.58736ZM9.35725 18.3746C7.9765 18.3746 6.84075 17.1076 6.84075 15.5536C6.84075 13.9979 7.9555 12.7309 9.35725 12.7309C10.7695 12.7309 11.8947 14.0084 11.8737 15.5536C11.8737 17.1076 10.759 18.3746 9.35725 18.3746ZM18.6602 18.3746C17.2812 18.3746 16.1437 17.1076 16.1437 15.5536C16.1437 13.9979 17.2585 12.7309 18.6602 12.7309C20.0725 12.7309 21.1995 14.0084 21.1767 15.5536C21.1767 17.1076 20.0725 18.3746 18.6602 18.3746Z" fill="#ECDBBA"/>
</g>
<defs>
<clipPath id="clip0_213_56">
<rect width="28" height="28" fill="white" transform="translate(0 0.5)"/>
</clipPath>
</defs>
</svg>
