<svg width="97" height="47" viewBox="0 0 97 47" fill="none" xmlns="http://www.w3.org/2000/svg">
<path d="M43.008 42.608C40.704 43.9307 37.9093 44.976 34.624 45.744C31.3387 46.512 27.9253 46.896 24.384 46.896C19.6053 46.896 15.5307 46.32 12.16 45.168C8.832 44.016 6.31467 42.416 4.608 40.368C2.944 38.32 2.112 35.952 2.112 33.264C2.112 30.9173 2.752 28.848 4.032 27.056C5.312 25.264 7.08267 23.8773 9.344 22.896C7.59467 22 6.25067 20.7627 5.312 19.184C4.416 17.5627 3.968 15.792 3.968 13.872C3.968 11.3973 4.736 9.136 6.272 7.088C7.85067 5.04 10.24 3.39733 13.44 2.16C16.64 0.922663 20.5867 0.303997 25.28 0.303997C28.224 0.303997 31.1253 0.581331 33.984 1.136C36.8427 1.69066 39.36 2.43733 41.536 3.376L38.08 12.848C34.112 11.0987 30.016 10.224 25.792 10.224C22.7627 10.224 20.5013 10.6293 19.008 11.44C17.5147 12.208 16.768 13.296 16.768 14.704C16.768 17.264 18.624 18.544 22.336 18.544H35.008V28.208H21.504C19.328 28.208 17.6853 28.5707 16.576 29.296C15.4667 29.9787 14.912 31.0027 14.912 32.368C14.912 33.8187 15.7227 34.9493 17.344 35.76C18.9653 36.5707 21.4827 36.976 24.896 36.976C27.328 36.976 29.824 36.656 32.384 36.016C34.9867 35.3333 37.248 34.416 39.168 33.264L43.008 42.608ZM48.0425 1.2H69.2265C74.1332 1.2 78.4852 2.11733 82.2825 3.952C86.0798 5.78667 89.0238 8.38933 91.1145 11.76C93.2052 15.1307 94.2505 19.0773 94.2505 23.6C94.2505 28.1227 93.2052 32.0693 91.1145 35.44C89.0238 38.8107 86.0798 41.4133 82.2825 43.248C78.4852 45.0827 74.1332 46 69.2265 46H48.0425V1.2ZM68.7145 35.888C72.5545 35.888 75.6265 34.8 77.9305 32.624C80.2772 30.448 81.4505 27.44 81.4505 23.6C81.4505 19.76 80.2772 16.752 77.9305 14.576C75.6265 12.4 72.5545 11.312 68.7145 11.312H60.7145V35.888H68.7145Z" fill="#ECDBBA"/>
<path d="M0 25.2H96.4265V28.4H0V25.2Z" fill="#ECDBBA"/>
</svg>
