<svg width="61" height="30" viewBox="0 0 61 30" fill="none" xmlns="http://www.w3.org/2000/svg">
<path d="M26.88 26.88C25.44 27.7067 23.6933 28.36 21.64 28.84C19.5867 29.32 17.4533 29.56 15.24 29.56C12.2533 29.56 9.70667 29.2 7.6 28.48C5.52 27.76 3.94667 26.76 2.88 25.48C1.84 24.2 1.32 22.72 1.32 21.04C1.32 19.5733 1.72 18.28 2.52 17.16C3.32 16.04 4.42667 15.1733 5.84 14.56C4.74667 14 3.90667 13.2267 3.32 12.24C2.76 11.2267 2.48 10.12 2.48 8.92C2.48 7.37333 2.96 5.96 3.92 4.68C4.90667 3.4 6.4 2.37333 8.4 1.6C10.4 0.826665 12.8667 0.439998 15.8 0.439998C17.64 0.439998 19.4533 0.613332 21.24 0.959999C23.0267 1.30667 24.6 1.77333 25.96 2.36L23.8 8.28C21.32 7.18667 18.76 6.64 16.12 6.64C14.2267 6.64 12.8133 6.89333 11.88 7.4C10.9467 7.88 10.48 8.56 10.48 9.44C10.48 11.04 11.64 11.84 13.96 11.84H21.88V17.88H13.44C12.08 17.88 11.0533 18.1067 10.36 18.56C9.66667 18.9867 9.32 19.6267 9.32 20.48C9.32 21.3867 9.82667 22.0933 10.84 22.6C11.8533 23.1067 13.4267 23.36 15.56 23.36C17.08 23.36 18.64 23.16 20.24 22.76C21.8667 22.3333 23.28 21.76 24.48 21.04L26.88 26.88ZM30.0266 0.999998H43.2666C46.3332 0.999998 49.0532 1.57333 51.4266 2.72C53.7999 3.86667 55.6399 5.49333 56.9466 7.6C58.2532 9.70667 58.9066 12.1733 58.9066 15C58.9066 17.8267 58.2532 20.2933 56.9466 22.4C55.6399 24.5067 53.7999 26.1333 51.4266 27.28C49.0532 28.4267 46.3332 29 43.2666 29H30.0266V0.999998ZM42.9466 22.68C45.3466 22.68 47.2666 22 48.7066 20.64C50.1732 19.28 50.9066 17.4 50.9066 15C50.9066 12.6 50.1732 10.72 48.7066 9.36C47.2666 8 45.3466 7.32 42.9466 7.32H37.9466V22.68H42.9466Z" fill="#2D4263"/>
<path d="M0 16H60.2666V18H0V16Z" fill="#2D4263"/>
</svg>
